<svg xmlns="http://www.w3.org/2000/svg" height="24px" viewBox="0 -960 960 960" width="24px" fill="currentColor"><path d="M204-120q-51 0-85.5-34.5T84-240q0-51 34.5-85.5T204-360q29 0 53.5 13t41.5 35l120-88-120-88q-17 22-41.5 35T204-440q-51 0-85.5-34.5T84-560q0-51 34.5-85.5T204-680q51 0 85.5 34.5T324-560q0 11-2 21t-6 19l124 90 288-210h112L451-440l288 210H627L339-440l-124 90q4 9 6 19t2 21q0 51-34.5 85.5T204-120Zm0-360q17 0 28.5-11.5T244-560q0-17-11.5-28.5T204-600q-17 0-28.5 11.5T164-560q0 17 11.5 28.5T204-520Zm0 320q17 0 28.5-11.5T244-240q0-17-11.5-28.5T204-280q-17 0-28.5 11.5T164-240q0 17 11.5 28.5T204-200Z"/></svg>
